<svg width="1205" height="1282" viewBox="0 0 1205 1282" fill="none" xmlns="http://www.w3.org/2000/svg">
<path d="M679.562 870.687C880.734 769.933 1057.44 614.096 1005.89 511.163C989.534 478.53 960.109 457.546 923.994 451.894C893.654 447.219 859.462 453.664 822.373 469.926C781.031 432.193 730.701 405.694 676.195 392.964C621.688 380.234 564.828 381.697 511.049 397.215C469.348 408.88 430.379 428.711 396.402 455.555C362.426 482.399 334.118 515.723 313.122 553.594C280.596 611.879 266.736 678.741 273.413 745.152C224.263 777.662 165.739 855.923 196.194 916.711C208.995 942.203 232.743 958.439 264.274 966.887C360.177 992.585 528.24 946.523 679.562 870.687ZM912.82 524.349C925.826 526.543 934.603 532.616 940.257 543.965C945.963 555.405 937.264 579.084 913.017 609.914C903.529 581.235 890.173 553.985 873.321 528.916C891.077 523.725 904.354 523.068 912.82 524.349ZM291.855 825.125C301.486 852.195 314.618 877.887 330.917 901.549C291.727 902.553 267.507 895.304 261.81 883.829C256.429 873.16 272.029 845.975 291.855 825.125ZM925.397 772.028C865.294 824.158 787.595 874.497 705.497 915.608C620.661 958.149 530.994 990.663 451.269 1007.04C471.793 1017.69 493.369 1026.17 515.649 1032.34C573.283 1047.72 634.009 1047.17 691.354 1030.75C750.81 1014.12 804.344 980.992 845.762 935.208C887.18 889.423 914.79 832.848 925.397 772.028Z" fill="white"/>
<path d="M464.654 256.129L379.173 207.509C373.136 204.075 365.457 206.172 362.005 212.198L345.45 241.078L313.526 213.46C309.842 210.273 304.651 209.494 300.194 211.456C295.747 213.422 292.809 217.777 292.675 222.645L290.703 294.249L255.029 232.461L288.779 174.002C291.03 170.102 291.032 165.297 288.78 161.396L251.392 96.6379C249.139 92.7365 244.977 90.3355 240.474 90.3347L165.694 90.3341C161.191 90.3333 157.027 92.737 154.776 96.6375L117.385 161.4C115.134 165.3 115.133 170.105 117.385 174.007L154.774 238.766C157.026 242.667 161.188 245.068 165.692 245.069L233.193 245.07L268.866 306.858L205.87 272.764C201.585 270.446 196.345 270.814 192.419 273.682C188.489 276.561 186.57 281.446 187.489 286.229L195.446 327.683L162.16 327.58C155.217 327.556 149.561 333.158 149.514 340.105L148.877 438.445C148.832 445.407 154.439 451.087 161.402 451.133C163.725 451.149 165.903 450.534 167.778 449.451C171.526 447.287 174.06 443.249 174.091 438.608L174.646 352.83L200.289 352.91L210.388 405.52C211.702 412.357 218.308 416.837 225.146 415.522C226.569 415.25 227.887 414.747 229.075 414.061C233.595 411.452 236.19 406.18 235.151 400.765L225.979 352.989L302.878 353.228C307.408 353.242 311.6 350.824 313.852 346.891L352.098 280.174L388.889 312.004C394.155 316.559 402.12 315.986 406.672 310.719C411.229 305.454 410.652 297.493 405.387 292.935L364.875 257.885L377.628 235.637L452.187 278.045C458.239 281.488 465.936 279.371 469.379 273.319C472.822 267.268 470.707 259.571 464.654 256.129ZM142.86 167.703L172.971 115.548L233.194 115.549L263.304 167.702L233.193 219.856L172.971 219.856L142.86 167.703ZM217.266 307.601L254.71 327.865L221.136 327.761L217.266 307.601ZM315.975 292.495L317.147 249.934L332.674 263.367L315.975 292.495Z" fill="white"/>
</svg>
